<?xml version="1.0" encoding="UTF-8" standalone="no"?>
<svg
   xmlns:dc="http://purl.org/dc/elements/1.1/"
   xmlns:cc="http://creativecommons.org/ns#"
   xmlns:rdf="http://www.w3.org/1999/02/22-rdf-syntax-ns#"
   xmlns:svg="http://www.w3.org/2000/svg"
   xmlns="http://www.w3.org/2000/svg"
   version="1.1"
   id="svg2"
   xml:space="preserve"
   width="1267"
   height="461"
   viewBox="0 0 1267 461">


    <style type="text/css"> svg { background-color: transparent; } </style>
    <metadata id="metadata8">
        <rdf:RDF>
            <cc:Work
         rdf:about=""><dc:format>image/svg+xml</dc:format><dc:type
           rdf:resource="http://purl.org/dc/dcmitype/StillImage" /></cc:Work></rdf:RDF></metadata><defs
     id="defs6"><clipPath
       clipPathUnits="userSpaceOnUse"
       id="clipPath20"><path
         d="M 0,9.1553e-5 H 950.25 V 345.75009 H 0 Z"
         clip-rule="evenodd"
         id="path18" /></clipPath><clipPath
       clipPathUnits="userSpaceOnUse"
       id="clipPath32"><path
         d="M 1.416e-5,0 H 950.25001 V 345.75 H 1.416e-5 Z"
         clip-rule="evenodd"
         id="path30" /></clipPath><clipPath
       clipPathUnits="userSpaceOnUse"
       id="clipPath46"><path
         d="M 1.416e-5,0 H 950.25001 V 345.75 H 1.416e-5 Z"
         clip-rule="evenodd"
         id="path44" /></clipPath><clipPath
       clipPathUnits="userSpaceOnUse"
       id="clipPath58"><path
         d="M 3.0518e-5,345.75 H 950.25 V 1.2207e-4 L 6.1035e-5,9.1553e-5"
         clip-rule="evenodd"
         id="path56" /></clipPath><clipPath
       clipPathUnits="userSpaceOnUse"
       id="clipPath68"><path
         d="M -6.1035e-5,345.75 H 950.25 V -3.0518e-5 L 0,0"
         clip-rule="evenodd"
         id="path66" /></clipPath><clipPath
       clipPathUnits="userSpaceOnUse"
       id="clipPath88"><path
         d="M 1.416e-5,0 H 950.25001 V 345.75 H 1.416e-5 Z"
         clip-rule="evenodd"
         id="path86" /></clipPath><clipPath
       clipPathUnits="userSpaceOnUse"
       id="clipPath100"><path
         d="M 1.416e-5,0 H 950.25001 V 345.75 H 1.416e-5 Z"
         clip-rule="evenodd"
         id="path98" /></clipPath><clipPath
       clipPathUnits="userSpaceOnUse"
       id="clipPath112"><path
         d="M 1.416e-5,0 H 950.25001 V 345.75 H 1.416e-5 Z"
         clip-rule="evenodd"
         id="path110" /></clipPath><clipPath
       clipPathUnits="userSpaceOnUse"
       id="clipPath124"><path
         d="M 1.416e-5,0 H 950.25001 V 345.75 H 1.416e-5 Z"
         clip-rule="evenodd"
         id="path122" /></clipPath><clipPath
       clipPathUnits="userSpaceOnUse"
       id="clipPath136"><path
         d="M 1.416e-5,0 H 950.25001 V 345.75 H 1.416e-5 Z"
         clip-rule="evenodd"
         id="path134" /></clipPath></defs><g
     id="g10"
     transform="matrix(1.3333333,0,0,-1.3333333,0,461)"><path
       d="M 0,0 H 950.25 V 345.75 H 0 Z"
       style="fill:#ffffff;fill-opacity:1;fill-rule:evenodd;stroke:none"
       id="path12" /><g
       id="g14"><g
         id="g16"
         clip-path="url(#clipPath20)"><path
           d="M 0,3.0518e-5 H 950.25 V 345.75003 H 0 Z"
           style="fill:#ffffff;fill-opacity:1;fill-rule:evenodd;stroke:none"
           id="path22" /></g></g><path
       d="m 33,129.75 h 120 v 120 H 33 Z"
       style="fill:#2574a9;fill-opacity:1;fill-rule:evenodd;stroke:none"
       id="path24" /><g
       id="g26"><g
         id="g28"
         clip-path="url(#clipPath32)"><text
           transform="matrix(1,0,0,-1,79.75,174.42)"
           style="font-variant:normal;font-weight:bold;font-size:38.325px;font-family:Verdana;-inkscape-font-specification:Verdana-Bold;writing-mode:lr-tb;fill:#ffffff;fill-opacity:1;fill-rule:nonzero;stroke:none"
           id="text36"><tspan
             x="0"
             y="0"
             id="tspan34">x</tspan></text></g></g><path
       d="m 797.25,129.75 h 120 v 120 h -120 z"
       style="fill:#2574a9;fill-opacity:1;fill-rule:evenodd;stroke:none"
       id="path38" /><g
       id="g40"><g
         id="g42"
         clip-path="url(#clipPath46)"><text
           transform="matrix(1,0,0,-1,839,174.42)"
           style="font-variant:normal;font-weight:bold;font-size:38.325px;font-family:Verdana;-inkscape-font-specification:Verdana-Bold;writing-mode:lr-tb;fill:#ffffff;fill-opacity:1;fill-rule:nonzero;stroke:none"
           id="text50"><tspan
             x="0 25.525425"
             y="0"
             id="tspan48">x‘</tspan></text></g></g><g
       id="g52"><g
         id="g54"
         clip-path="url(#clipPath58)"><path
           d="m 233.25,274.5 145.5,-48.28 v -73.69 l -145.5,-48.28 z"
           style="fill:#203864;fill-opacity:1;fill-rule:evenodd;stroke:none"
           id="path60" /></g></g><g
       id="g62"><g
         id="g64"
         clip-path="url(#clipPath68)"><path
           d="m 717,104.25 -145.5,48.28 v 73.69 L 717,274.5 Z"
           style="fill:#203864;fill-opacity:1;fill-rule:evenodd;stroke:none"
           id="path70" /></g></g><path
       d="M 459.75,84 H 490.5 V 295.5 H 459.75 Z"
       style="fill:#b4c7e7;fill-opacity:1;fill-rule:evenodd;stroke:none"
       id="path72" /><path
       d="m 169.5,197.06 h 31.88 v 7.69 L 216.75,189.37 201.38,174 v 7.69 H 169.5 Z"
       style="fill:#000000;fill-opacity:1;fill-rule:evenodd;stroke:none"
       id="path74" /><path
       d="m 395.25,197.06 h 32.63 v 7.69 L 443.25,189.37 427.88,174 v 7.69 h -32.63 z"
       style="fill:#000000;fill-opacity:1;fill-rule:evenodd;stroke:none"
       id="path76" /><path
       d="m 507,197.06 h 32.63 v 7.69 L 555,189.37 539.63,174 v 7.69 H 507 Z"
       style="fill:#000000;fill-opacity:1;fill-rule:evenodd;stroke:none"
       id="path78" /><path
       d="m 733.5,197.06 h 31.88 v 7.69 L 780.75,189.37 765.38,174 v 7.69 H 733.5 Z"
       style="fill:#000000;fill-opacity:1;fill-rule:evenodd;stroke:none"
       id="path80" /><g
       id="g82"><g
         id="g84"
         clip-path="url(#clipPath88)"><text
           transform="matrix(1,0,0,-1,63.575,54.65)"
           style="font-variant:normal;font-weight:bold;font-size:18.775px;font-family:Verdana;-inkscape-font-specification:Verdana-Bold;writing-mode:lr-tb;fill:#000000;fill-opacity:1;fill-rule:nonzero;stroke:none"
           id="text92"><tspan
             x="0 10.47645 23.9569 36.705124 50.185574"
             y="0"
             id="tspan90">Input</tspan></text></g></g><g
       id="g94"><g
         id="g96"
         clip-path="url(#clipPath100)"><text
           transform="matrix(1,0,0,-1,263.48,54.65)"
           style="font-variant:normal;font-weight:bold;font-size:18.775px;font-family:Verdana;-inkscape-font-specification:Verdana-Bold;writing-mode:lr-tb;fill:#000000;fill-opacity:1;fill-rule:nonzero;stroke:none"
           id="text104"><tspan
             x="0 12.823325 26.285 37.549999 50.317001 63.084 75.832222"
             y="0"
             id="tspan102">Encoder</tspan></text></g></g><g
       id="g106"><g
         id="g108"
         clip-path="url(#clipPath112)"><text
           transform="matrix(1,0,0,-1,405.95,54.65)"
           style="font-variant:normal;font-weight:bold;font-size:18.775px;font-family:Verdana;-inkscape-font-specification:Verdana-Bold;writing-mode:lr-tb;fill:#000000;fill-opacity:1;fill-rule:nonzero;stroke:none"
           id="text116"><tspan
             x="0 11.997225 24.745449 32.987675 45.735901 59.235126 67.477348 74.949799 88.449028 101.21603 113.96425 125.22925"
             y="0"
             id="tspan114">Latent Space</tspan></text></g></g><g
       id="g118"><g
         id="g120"
         clip-path="url(#clipPath124)"><text
           transform="matrix(1,0,0,-1,599.97,54.65)"
           style="font-variant:normal;font-weight:bold;font-size:18.775px;font-family:Verdana;-inkscape-font-specification:Verdana-Bold;writing-mode:lr-tb;fill:#000000;fill-opacity:1;fill-rule:nonzero;stroke:none"
           id="text128"><tspan
             x="0 15.752225 28.50045 39.76545 52.532452 65.299454 78.047676"
             y="0"
             id="tspan126">Decoder</tspan></text></g></g><g
       id="g130"><g
         id="g132"
         clip-path="url(#clipPath136)"><text
           transform="matrix(1,0,0,-1,820.97,54.65)"
           style="font-variant:normal;font-weight:bold;font-size:18.775px;font-family:Verdana;-inkscape-font-specification:Verdana-Bold;writing-mode:lr-tb;fill:#000000;fill-opacity:1;fill-rule:nonzero;stroke:none"
           id="text140"><tspan
             x="0 15.771 29.270226 37.512451 50.279449 63.778675"
             y="0"
             id="tspan138">Output</tspan></text></g></g></g>

</svg>
